<svg width="104" height="117" viewBox="0 0 104 117" fill="none" xmlns="http://www.w3.org/2000/svg">
<path d="M46.732 1.33974C49.826 -0.446583 53.638 -0.44658 56.732 1.33975L97.6998 24.9925L69.3716 41.5799C64.9865 37.1776 58.9184 34.4531 52.2139 34.4531C45.2413 34.4531 38.9569 37.3999 34.5383 42.1161L5.52753 25.1291L46.732 1.33974Z" fill="#00E1E5"/>
<path d="M29.0162 51.6964L0 34.7063V82.1997L28.9081 65.2728C28.3146 63.1738 27.9971 60.959 27.9971 58.67C27.9971 56.2458 28.3533 53.9048 29.0162 51.6964Z" fill="#00E1E5"/>
<path d="M34.2784 74.9421L5.98339 91.5099L46.732 115.036C49.826 116.822 53.638 116.822 56.732 115.036L97.244 91.6465L69.6419 75.4844C65.2377 80.0483 59.0573 82.8869 52.2139 82.8869C45.1034 82.8869 38.7087 79.8224 34.2784 74.9421Z" fill="#00E1E5"/>
<path d="M75.3057 65.9871L103.462 82.4738C103.463 82.4099 103.464 82.3459 103.464 82.2819V34.4312L75.1871 50.9884C75.9938 53.402 76.4308 55.985 76.4308 58.67C76.4308 61.2203 76.0366 63.6785 75.3057 65.9871Z" fill="#00E1E5"/>
</svg>
